<svg xmlns="http://www.w3.org/2000/svg" xml:space="preserve" width="130" height="130" id="logo">
  <path fill="#1CC464" d="M105.135 10.223 92.313 2.879a9.558 9.558 0 0 0-1.8-1.032l-.191-.108-.008.017C86.865.353 82.41.86 77.55 3.665L38.066 26.46c-10.857 6.269-19.742 21.655-19.742 34.193v45.591c0 6.114 2.125 10.45 5.549 12.578l-.033.059 14.246 8.072 8.014-13.949 31.451-18.157c10.857-6.269 19.741-21.655 19.741-34.193V23.876l7.843-13.653z"></path>
  <path fill="#15A054" d="M105.135 10.223 91.412 7.005c-.562-.409-3.365-.399-4.002-.677l-1.018-.407-1.831-.341c-3.449-1.402-2.15-4.721-7.01-1.916L38.066 26.46c-10.857 6.269-19.742 21.655-19.742 34.193v45.591c0 6.114 2.125 10.45 5.549 12.578l-.033.059 14.246 8.072 8.014-13.949 31.451-18.157c10.857-6.269 19.741-21.655 19.741-34.193V23.876l7.843-13.653z"></path>
  <path fill="#07875C" d="M19.077 54.084c-.479 2.232-.753 4.443-.753 6.569v45.591c0 6.114 2.125 10.45 5.549 12.578l-.033.059 14.246 8.072 8.014-13.949 31.451-18.157c1.845-1.065 3.627-2.411 5.324-3.945L19.077 54.084z"></path>
  <path fill="#25D625" d="M51.636 34.329C40.78 40.598 31.895 55.984 31.895 68.522v45.591c0 12.538 8.885 17.666 19.741 11.398l39.485-22.796c10.857-6.269 19.74-21.655 19.74-34.193v-45.59c0-12.538-8.883-17.666-19.74-11.398L51.636 34.329z"></path>
  <path fill="#1BBF1B" d="M110.861 22.932c0-12.538-8.883-17.666-19.74-11.398L51.636 34.329C40.78 40.598 31.895 55.984 31.895 68.522v45.591c0 12.538 8.885 17.666 19.741 11.398"></path>
  <path fill="#AEFFAE" d="M73.293 105.905c-.529.305-1.062.555-1.583.775-.99-.002-1.657-.71-2.463-1.077-.578-.308-1.47-.749-.74-2.093a148.122 148.122 0 0 1 3.948-6.807c.191-.297.42-.51.654-.645.387-.223.786-.231 1.05-.045a59.393 59.393 0 0 1 3.483 1.962c.45.188.697.913.19 1.726-.936 1.744-1.91 3.488-3.013 5.127-.496.425-1.01.778-1.526 1.077m-7.977-4.605c-.597.345-1.212.596-1.76.857-1.246-.192-2.208-.977-3.197-1.619-.668-.338-.055-1.625.452-2.458a5477.887 5477.887 0 0 0 10.021-17.235c.604-1.023 1.15-2.115 1.893-3.061a1.43 1.43 0 0 1 .351-.289c.561-.324 1.003.082 1.412.25 1.119.715 2.396 1.173 3.416 2.047.451.391-.065 1.41-.474 2.108-3.336 5.741-6.688 11.493-10.014 17.251-.533 1.057-1.301 1.688-2.1 2.149m-8.198-4.508c-.626.359-1.27.608-1.843.838a9.819 9.819 0 0 1-3.16-1.768c-.549-.403.143-1.568.571-2.322 5.871-10.074 11.709-20.156 17.567-30.225.791-1.333 1.5-2.715 2.39-3.979.138-.159.27-.27.395-.342.576-.331 1.049.103 1.466.269 1.081.693 2.308 1.156 3.309 1.973.51.405-.056 1.541-.492 2.289-6.027 10.357-12.051 20.701-18.048 31.064-.55 1.066-1.337 1.73-2.155 2.203m15.911-53.251c-.601.347-1.204.771-1.789 1.249-1.437 1.213-2.725 2.846-3.758 4.624-8.911 15.345-17.83 30.693-26.76 46.058-1.024 1.764-1.824 3.688-2.151 5.496-.724 3.357.203 6.109 2.097 7.121 6.33 3.539 12.668 7.062 18.987 10.617 1.397.807 3.355.629 5.347-.521l.069-.04a789.181 789.181 0 0 0 4.883-2.8c1.148-.664 2.301-1.33 3.449-2l7.151-4.126c.176-.09.353-.188.529-.29 2.143-1.235 4.258-3.396 5.77-6.017 5.696-9.783 11.379-19.594 17.072-29.375.935-1.621 1.94-3.204 2.688-4.886 1.384-3.083 1.609-6.298.79-8.415-.643-1.701-2.171-2.258-3.496-3-7.978-4.47-15.964-8.932-23.941-13.398-1.168-.633-2.268-1.482-3.804-1.339-.974.036-2.053.42-3.133 1.042"></path>
  <path fill="#64FF64" d="M79.967 43.839c-1.168-.633-2.268-1.482-3.804-1.339-.975.035-2.054.419-3.134 1.041-.601.347-1.204.771-1.789 1.249-1.437 1.213-2.725 2.846-3.758 4.624-8.911 15.345-17.83 30.693-26.76 46.058-1.024 1.764-1.824 3.688-2.151 5.496-.724 3.357.203 6.109 2.097 7.121 5.299 2.963 10.601 5.92 15.896 8.889l9.229-15.985a6.762 6.762 0 0 1-.476.308c-.597.345-1.212.596-1.76.857-1.246-.192-2.208-.977-3.197-1.619-.668-.338-.055-1.625.452-2.458a5477.887 5477.887 0 0 0 10.021-17.235c.604-1.023 1.15-2.115 1.893-3.061a1.43 1.43 0 0 1 .351-.289c.561-.324 1.003.082 1.412.25 1.119.715 2.396 1.173 3.416 2.047.032.027.049.064.071.099l16.218-28.09-14.227-7.963zM77.32 63.524c-6.026 10.358-12.05 20.702-18.047 31.065-.551 1.066-1.338 1.73-2.155 2.203-.626.359-1.27.608-1.843.838a9.819 9.819 0 0 1-3.16-1.768c-.549-.403.143-1.568.571-2.322 5.871-10.074 11.709-20.156 17.567-30.225.791-1.333 1.5-2.715 2.39-3.979.138-.159.27-.27.395-.342.576-.331 1.049.103 1.466.269 1.081.693 2.308 1.156 3.309 1.973.509.405-.056 1.54-.493 2.288z"></path>
  <path fill="#2AE82A" d="M42.866 129c-7.16 0-11.786-5.844-11.786-14.887V68.522c0-12.829 9.039-28.485 20.148-34.897l39.485-22.796c3.2-1.848 6.289-2.784 9.179-2.784 7.158 0 11.783 5.844 11.783 14.887v45.591c0 12.829-9.037 28.485-20.148 34.898l-39.484 22.795c-3.201 1.847-6.287 2.784-9.177 2.784zM99.893 9.674c-2.601 0-5.415.863-8.365 2.564L52.043 35.033c-10.66 6.156-19.334 21.179-19.334 33.489v45.591c0 8.178 3.891 13.259 10.156 13.259h.001c2.601 0 5.413-.864 8.362-2.565l39.485-22.795c10.66-6.155 19.334-21.179 19.334-33.489V22.932c.001-8.178-3.891-13.258-10.154-13.258z"></path>
</svg>
